<svg viewBox="0 0 512 512" xmlns="http://www.w3.org/2000/svg">
	<g>
		<path d="m476 48h-440a28.031 28.031 0 0 0 -28 28v296a28.031 28.031 0 0 0 28 28h154.56l-5.34 32h-33.22a8 8 0 0 0 -8 8v16h-32a8 8 0 0 0 0 16h288a8 8 0 0 0 0-16h-32v-16a8 8 0 0 0 -8-8h-33.22l-5.34-32h154.56a28.031 28.031 0 0 0 28-28v-296a28.031 28.031 0 0 0 -28-28zm-124 400v8h-192v-8zm-150.56-16 5.34-32h98.44l5.34 32zm286.56-60a12.01 12.01 0 0 1 -12 12h-440a12.01 12.01 0 0 1 -12-12v-20h464zm0-36h-464v-260a12.01 12.01 0 0 1 12-12h440a12.01 12.01 0 0 1 12 12z"/>
		<path d="m96 360h-48a8 8 0 0 0 0 16h48a8 8 0 0 0 0-16z"/>
		<path d="m128 360h-8a8 8 0 0 0 0 16h8a8 8 0 0 0 0-16z"/>
		<path d="m432 304a8 8 0 0 0 0 16h24a8 8 0 0 0 8-8v-208a8 8 0 0 0 -8-8h-24a8 8 0 0 0 0 16h16v192z"/>
		<path d="m56 320h24a8 8 0 0 0 0-16h-16v-192h16a8 8 0 0 0 0-16h-24a8 8 0 0 0 -8 8v208a8 8 0 0 0 8 8z"/>
		<path d="m112 120h288a8 8 0 0 0 0-16h-288a8 8 0 0 0 0 16z"/>
		<path d="m112 152h288a8 8 0 0 0 0-16h-288a8 8 0 0 0 0 16z"/>
		<path d="m112 184h288a8 8 0 0 0 0-16h-288a8 8 0 0 0 0 16z"/>
		<path d="m112 216h128a8 8 0 0 0 0-16h-128a8 8 0 0 0 0 16z"/>
		<path d="m264 200a8 8 0 0 0 0 16h8a8 8 0 0 0 0-16z"/>
		<path d="m112 248h288a8 8 0 0 0 0-16h-288a8 8 0 0 0 0 16z"/>
		<path d="m112 280h288a8 8 0 0 0 0-16h-288a8 8 0 0 0 0 16z"/>
		<path d="m112 312h128a8 8 0 0 0 0-16h-128a8 8 0 0 0 0 16z"/>
		<path d="m272 296h-8a8 8 0 0 0 0 16h8a8 8 0 0 0 0-16z"/>
	</g>
</svg>